<svg xmlns="http://www.w3.org/2000/svg" width="7.461" height="10.202" viewBox="0 0 7.461 10.202">
  <g id="Group_2" data-name="Group 2" transform="translate(0.593 0.593)">
    <path id="path4337-3" d="M967.166,333.208a2.172,2.172,0,0,0-.8,1.626c.025,1.217.711,1.677,1.806,3.352a13.919,13.919,0,0,1,1.2,2.808,1.7,1.7,0,0,0,.132.383c.025.015.078-.162.132-.353a13.922,13.922,0,0,1,1.2-2.807c1.1-1.675,1.781-2.135,1.806-3.352a2.174,2.174,0,0,0-.8-1.627,3.789,3.789,0,0,0-2.339-.86A3.6,3.6,0,0,0,967.166,333.208Z" transform="translate(-966.369 -332.378)" fill="#f55a5a" stroke="#f55a5a" stroke-width="1.186"/>
    <path id="path3049" d="M1.345,0A1.429,1.429,0,0,1,2.689,1.5,1.429,1.429,0,0,1,1.345,3,1.429,1.429,0,0,1,0,1.5,1.429,1.429,0,0,1,1.345,0Z" transform="translate(1.793 1.5)" fill="#fff"/>
  </g>
</svg>
